<?xml version="1.0" standalone="no"?><!DOCTYPE svg PUBLIC "-//W3C//DTD SVG 1.1//EN" "http://www.w3.org/Graphics/SVG/1.1/DTD/svg11.dtd"><svg class="icon" width="200px" height="170.10px" viewBox="0 0 1204 1024" version="1.1" xmlns="http://www.w3.org/2000/svg"><path d="M448.150588 955.934118L643.312941 1024V213.835294s3.011765-51.802353 37.948235-42.164706a60.235294 60.235294 0 0 1 39.152942 48.790588v352.978824s128.301176 77.703529 198.174117-42.164706A369.844706 369.844706 0 0 0 881.242353 180.705882C783.058824 65.656471 448.150588 0 448.150588 0zM411.407059 580.065882v124.084706l-207.209412 84.329412s-33.731765 14.456471-22.889412 30.72 67.463529 17.468235 93.967059 12.649412S411.407059 783.058824 411.407059 783.058824v115.049411a695.115294 695.115294 0 0 1-162.032941 12.047059C177.091765 903.529412 60.235294 877.025882 24.094118 837.872941S0 769.204706 16.263529 751.134118a291.538824 291.538824 0 0 1 69.872942-42.767059z"  /><path d="M681.863529 676.442353a615.604706 615.604706 0 0 1 257.807059-42.164706c64.451765 0 268.649412 46.983529 264.432941 120.470588 0 49.392941-107.821176 92.16-107.821176 92.16l-415.021177 162.635294v-126.494117l308.404706-120.470588s44.574118-23.491765 37.948236-32.527059c-19.877647-28.310588-71.68-20.48-105.411765-15.661177s-240.941176 92.16-240.941177 92.16z"  /></svg>