<?xml version="1.0" standalone="no"?><!DOCTYPE svg PUBLIC "-//W3C//DTD SVG 1.1//EN" "http://www.w3.org/Graphics/SVG/1.1/DTD/svg11.dtd"><svg class="icon" width="200px" height="200.00px" viewBox="0 0 1024 1024" version="1.1" xmlns="http://www.w3.org/2000/svg"><path d="M850.496 458.88s73.76 3.744 73.76-39.616c0-56.64-98.24-107.648-98.24-107.648s15.36-32.64 24.96-50.88c9.664-18.24 36.64-89.248 39.04-105.472 2.976-20.512-1.632-26.88-1.632-26.88-6.624 43.744-77.888 169.728-83.648 173.984-69.472-32.48-164.992-41.6-164.992-41.6S546.24 64 458.24 64c-87.232 0-86.72 168.512-86.72 168.512s-24.64-47.776-55.648-47.776c-45.248 0-60.128 68.256-60.128 142.4-89.248 0-164.384 20-171.104 21.856-6.656 1.888-27.776 17.28-18.24 15.36 19.584-6.24 111.36-20.48 191.616-13.472 4.48 70.4 45.6 162.112 45.6 162.112s-88.256 127.744-88.256 218.88c0 24 10.528 67.872 73.76 67.872 53.12 0 112.768-31.872 123.872-38.24-9.728 13.856-16.992 40.48-16.992 52.736 0 10.016 6.016 38.4 46.88 38.4 52.48 0 111.232-40.256 111.232-40.256s55.52 92 102.88 134.112c12.768 11.392 25.024 13.504 25.024 13.504s-47.136-45.248-109.12-162.016c57.6-35.488 117.6-119.488 117.6-119.488s7.136 0.256 61.888 0.256c85.76 0 207.488-18.016 207.488-86.112 0.128-70.272-109.376-133.76-109.376-133.76z m9.504-42.368c0 24.864-23.616 24.64-23.616 24.64l-18.016 1.088s-34.112-17.856-54.88-26.368c0 0 32.128-49.376 39.648-63.136 5.6 3.392 56.864 35.392 56.864 63.776zM501.12 163.136c40.384 0 97.888 94.976 97.888 94.976s-89.76-8-163.648 35.392c2.016-68.384 25.024-130.368 65.76-130.368z m-159.616 76.992c12.736 0 25.248 15.616 30.496 28.736 0 8.768 4.48 59.776 4.48 59.776l-73.984-2.88c0-66.624 26.144-85.632 39.008-85.632z m-7.744 463.136c-40.512 0-48.768-22.528-48.768-42.752 0-45.888 36.64-110.144 36.64-110.144s41.12 86.4 112.736 122.752c-35.52 20.864-64.864 30.144-100.608 30.144z m131.36 90.368c-28.384 0-31.872-18.368-31.872-22.624 0-13.12 10.368-28.768 10.368-28.768s47.648-32.128 50.624-35.616l35.264 65.76s-36 21.248-64.384 21.248z m88.512-35.744c-17.28-30.144-30.016-61.632-30.016-61.632s70.88 4.48 109.024-34.752c-23.776 10.624-61.632 24.128-105.632 20 92-80.992 145.728-139.744 191.104-200.384-3.84-4.736-24.64-19.232-29.76-21.632-27.36 33.024-133.984 146.88-232.736 203.264-124.992-68.128-151.232-268.48-153.856-310.112l68.256 6.496s-25.632 45.504-25.632 78.976c0 33.376 4 35.136 4 35.136s-0.896-58.24 35.104-103.232c27.52 145.984 56.128 220.736 78.4 265.344 11.36-4.736 32.48-14.08 32.48-14.08s-63.008-181.664-59.52-304.544c28.64-15.232 71.04-30.976 118.784-30.976 125.76 0 226.88 53.984 226.88 53.984l-39.52 55.264s-35.232-63.744-85.12-75.136c26.24 19.52 55.744 45.376 71.008 82.496-104.256-40.64-230.016-62.112-270.4-66.88-3.488 14.88-2.976 36.16-2.976 36.16s168.64 31.104 291.36 101.216c-0.864 153.504-168.128 271.36-191.232 285.024z m159.744-114.752s52.384-68.64 51.52-159.648c0 0 84.608 52.384 84.608 103.52 0 56.992-136.128 56.128-136.128 56.128z" /></svg>