<?xml version="1.0" standalone="no"?><!DOCTYPE svg PUBLIC "-//W3C//DTD SVG 1.1//EN" "http://www.w3.org/Graphics/SVG/1.1/DTD/svg11.dtd"><svg class="icon" width="200px" height="200.00px" viewBox="0 0 1024 1024" version="1.1" xmlns="http://www.w3.org/2000/svg"><path d="M256 853.333333h512V170.666667H256v682.666666zM810.666667 85.333333a42.666667 42.666667 0 0 1 42.666666 42.666667v768a42.666667 42.666667 0 0 1-42.666666 42.666667H213.333333a42.666667 42.666667 0 0 1-42.666666-42.666667V128a42.666667 42.666667 0 0 1 42.666666-42.666667h597.333334zM341.333333 682.666667h341.333334a42.666667 42.666667 0 1 0 0-85.333334H341.333333a42.666667 42.666667 0 1 0 0 85.333334z m298.666667 42.666666H384a42.666667 42.666667 0 1 0 0 85.333334h256a42.666667 42.666667 0 1 0 0-85.333334z m-128-384c-70.4 0-128 57.6-128 128a42.666667 42.666667 0 0 0 42.666667 42.666667h170.666666a42.666667 42.666667 0 0 0 42.666667-42.666667c0-70.4-57.6-128-128-128z m0-42.666666a42.666667 42.666667 0 1 0 0-85.333334 42.666667 42.666667 0 0 0 0 85.333334zM384 341.333333a42.666667 42.666667 0 1 0 0-85.333333 42.666667 42.666667 0 0 0 0 85.333333z m256 0a42.666667 42.666667 0 1 0 0-85.333333 42.666667 42.666667 0 0 0 0 85.333333z" fill="#000000" /></svg>