<?xml version="1.0" standalone="no"?><!DOCTYPE svg PUBLIC "-//W3C//DTD SVG 1.1//EN" "http://www.w3.org/Graphics/SVG/1.1/DTD/svg11.dtd"><svg class="icon" width="200px" height="200.00px" viewBox="0 0 1024 1024" version="1.1" xmlns="http://www.w3.org/2000/svg"><path d="M1002.682182 616.820364a80.058182 80.058182 0 0 0-23.133091-52.922182L457.681455 37.236364a53.061818 53.061818 0 0 0-37.655273-15.732364h-316.974546c-44.962909 0-81.454545 36.026182-81.454545 80.523636v325.352728c0 3.444364 0.372364 6.842182 1.024 10.100363l0.558545 2.513455a50.641455 50.641455 0 0 0 13.824 24.110545l260.654546 257.442909 260.608 257.489455c6.004364 5.864727 12.660364 10.705455 19.735273 14.382545a82.478545 82.478545 0 0 0 95.418181-14.429091l305.477819-301.940363a84.805818 84.805818 0 0 0 11.170909-13.730909 73.867636 73.867636 0 0 0 5.864727-11.031273 77.730909 77.730909 0 0 0 6.749091-35.467636zM240.779636 322.839273a77.730909 77.730909 0 1 1 0.093091-155.415273 77.730909 77.730909 0 0 1-0.093091 155.415273z" /></svg>