<?xml version="1.0" standalone="no"?><!DOCTYPE svg PUBLIC "-//W3C//DTD SVG 1.1//EN" "http://www.w3.org/Graphics/SVG/1.1/DTD/svg11.dtd"><svg class="icon" width="200px" height="200.00px" viewBox="0 0 1024 1024" version="1.1" xmlns="http://www.w3.org/2000/svg"><path d="M1024.192 226.4a414.112 414.112 0 0 1-120.608 32.992 211.232 211.232 0 0 0 92.384-116.192 422.72 422.72 0 0 1-133.408 51.008A210.08 210.08 0 0 0 709.152 128a210.016 210.016 0 0 0-210.016 210.016c0 16.384 1.792 32.384 5.408 47.808A596.32 596.32 0 0 1 71.552 166.24a209.92 209.92 0 0 0-28.384 105.6 209.824 209.824 0 0 0 93.408 174.816 210.08 210.08 0 0 1-95.2-26.208v2.592a210.08 210.08 0 0 0 168.608 205.984 210.368 210.368 0 0 1-94.976 3.584 210.816 210.816 0 0 0 196.192 146.016 421.44 421.44 0 0 1-311.2 87.008 594.176 594.176 0 0 0 322.208 94.4c386.4 0 597.792-320.192 597.792-597.792 0-9.184-0.192-18.208-0.608-27.2A422.912 422.912 0 0 0 1024.192 226.432z" /></svg>