<?xml version="1.0" standalone="no"?>
<!DOCTYPE svg PUBLIC "-//W3C//DTD SVG 20010904//EN"
 "http://www.w3.org/TR/2001/REC-SVG-20010904/DTD/svg10.dtd">
<svg version="1.0" xmlns="http://www.w3.org/2000/svg"
 width="700.000000pt" height="700.000000pt" viewBox="0 0 700.000000 700.000000"
 preserveAspectRatio="xMidYMid meet">
<metadata>
Created by potrace 1.11, written by Peter Selinger 2001-2013
</metadata>
<g transform="translate(0.000000,700.000000) scale(0.100000,-0.100000)"
fill="#000000" stroke="none">
<path d="M0 3500 l0 -3500 3500 0 3500 0 0 3500 0 3500 -3500 0 -3500 0 0
-3500z m4744 1934 c3 -8 3 -26 0 -40 -8 -31 22 -34 31 -3 5 16 10 18 18 10 8
-8 12 -49 12 -109 0 -53 3 -100 8 -103 7 -5 -36 -183 -93 -384 -17 -60 -43
-157 -56 -213 -13 -57 -32 -118 -40 -134 -9 -17 -20 -74 -24 -128 -10 -113
-63 -332 -120 -492 -22 -62 -40 -119 -40 -126 0 -9 14 -11 55 -6 52 6 55 6 55
-15 0 -26 50 -51 150 -77 137 -35 207 -79 245 -154 43 -85 57 -253 35 -440
-19 -168 -161 -493 -277 -634 -24 -28 -52 -68 -63 -88 -11 -20 -55 -74 -98
-119 l-79 -83 -42 14 c-65 21 -126 81 -165 163 -19 40 -38 86 -42 102 -4 17
-17 39 -28 50 -13 12 -31 54 -45 107 -12 49 -27 90 -32 94 -5 3 -9 19 -9 35 0
27 -3 30 -27 27 -23 -3 -32 -14 -61 -83 -19 -44 -102 -219 -184 -390 -82 -170
-164 -343 -181 -385 -17 -41 -57 -118 -88 -170 -31 -52 -82 -139 -113 -193
-31 -53 -61 -97 -65 -97 -5 0 -12 -11 -15 -25 -7 -27 -109 -131 -138 -141 -26
-8 -32 0 -31 42 1 34 0 35 -18 18 -18 -16 -20 -16 -44 6 -13 12 -31 44 -39 69
-20 64 -29 158 -15 166 6 4 13 -2 16 -14 6 -23 33 -29 33 -7 0 8 21 38 46 68
71 82 148 212 358 606 54 101 122 225 152 275 30 51 59 109 65 131 6 21 50
122 98 225 181 384 278 638 255 661 -17 17 -39 2 -93 -66 -32 -39 -66 -70 -88
-79 -50 -21 -343 -318 -377 -383 -8 -15 -71 -87 -140 -161 -92 -97 -129 -143
-136 -171 -8 -30 -20 -44 -53 -64 -52 -30 -139 -106 -167 -147 -13 -18 -30
-75 -45 -151 -27 -143 -35 -166 -64 -192 -21 -19 -23 -19 -75 -3 -30 10 -60
15 -67 12 -16 -6 -59 -66 -59 -81 0 -6 -11 -21 -25 -34 -16 -15 -23 -30 -20
-41 4 -12 -13 -42 -51 -89 -56 -70 -59 -71 -93 -65 -20 4 -55 17 -78 31 -52
30 -90 103 -99 189 -8 79 5 111 50 123 19 6 50 22 69 36 19 14 38 26 44 26 6
0 39 27 74 60 l64 61 -35 -4 c-19 -3 -65 -12 -102 -22 -85 -22 -116 -12 -149
50 -22 42 -23 44 -5 64 13 15 17 32 14 73 l-3 53 52 25 c50 24 53 27 53 63 0
51 -17 55 -115 30 -79 -21 -80 -21 -111 -2 -79 48 -83 122 -13 225 30 44 99
84 146 84 14 0 34 7 43 15 10 9 50 25 89 36 71 20 229 96 264 127 21 19 22 36
2 52 -13 10 -19 10 -33 -2 -9 -9 -33 -18 -53 -21 -20 -3 -58 -21 -83 -41 -26
-19 -84 -54 -130 -77 -96 -47 -98 -47 -164 25 -26 28 -39 51 -36 61 3 8 2 15
-4 15 -20 0 -33 -30 -45 -102 -11 -64 -15 -73 -36 -76 -38 -6 -66 6 -100 40
-43 44 -67 116 -76 223 -5 56 -13 96 -22 107 -20 22 -10 35 36 48 41 11 137
76 146 99 12 29 -8 22 -90 -34 -80 -55 -112 -65 -89 -27 6 9 25 26 43 37 134
83 219 145 286 209 63 60 77 78 72 96 -3 12 -1 32 5 44 14 33 -7 426 -26 469
-24 53 -25 77 -13 188 l12 107 -47 5 c-54 7 -121 39 -195 93 -51 39 -88 85
-76 97 3 4 -2 25 -12 46 -10 22 -18 66 -19 98 -1 51 1 58 19 61 13 2 37 -14
68 -44 l47 -48 77 18 c121 29 199 55 213 71 15 18 58 195 70 288 9 72 22 97
49 97 25 0 41 -20 41 -51 0 -14 8 -37 19 -50 10 -13 29 -61 41 -106 32 -120
28 -117 140 -76 160 59 172 65 167 84 -6 22 11 29 71 29 57 0 121 17 145 38
12 11 17 30 17 72 0 48 -5 63 -30 95 -31 39 -32 58 -2 48 27 -9 109 -92 164
-165 36 -49 57 -68 73 -68 13 0 50 -18 84 -41 33 -22 76 -45 95 -50 43 -12
132 -95 141 -132 13 -50 -19 -70 -138 -88 -98 -14 -234 -66 -257 -99 -9 -14
-43 -74 -75 -135 -66 -124 -101 -178 -159 -248 -47 -57 -44 -70 25 -104 24
-12 62 -40 84 -62 l39 -41 -54 -56 c-33 -33 -80 -68 -116 -85 -33 -16 -71 -40
-84 -54 l-23 -25 34 0 c19 1 52 7 74 15 21 8 39 13 40 12 2 -13 24 -42 35 -45
9 -3 11 2 6 21 -3 14 -2 28 3 32 16 9 114 -33 160 -70 24 -19 50 -35 57 -35 8
0 14 -4 14 -10 0 -5 16 -16 35 -24 23 -10 37 -24 42 -43 13 -48 8 -126 -11
-162 -30 -57 -118 -138 -166 -152 -23 -7 -44 -19 -47 -26 -3 -7 -18 -13 -34
-13 -16 0 -29 -3 -29 -7 0 -5 14 -28 31 -53 16 -24 28 -51 27 -60 -4 -23 -67
-50 -116 -50 -61 0 -112 -26 -112 -56 0 -21 4 -24 29 -22 16 1 36 -3 44 -10 8
-7 36 -19 63 -27 27 -9 85 -34 129 -58 111 -59 111 -64 -12 -186 -54 -54 -126
-117 -161 -139 -57 -37 -61 -42 -43 -51 61 -33 101 -2 417 326 288 298 398
417 437 476 30 45 42 52 147 97 132 56 118 38 210 271 33 85 74 188 90 230 17
41 30 85 30 97 0 13 9 48 21 80 37 103 40 114 24 108 -8 -3 -15 0 -15 6 0 21
103 405 153 568 57 189 87 324 87 393 0 69 28 113 44 71z m-2388 -1783 c-25
-25 -46 -41 -46 -35 0 19 84 108 88 94 3 -7 -16 -33 -42 -59z"/>
<path d="M3085 5063 c-114 -25 -337 -106 -357 -130 -12 -15 -8 -16 43 -10 61
6 365 103 375 119 4 6 0 14 -7 19 -15 9 -21 9 -54 2z"/>
<path d="M2970 4654 c-14 -7 -68 -20 -120 -29 -52 -9 -98 -20 -103 -24 -4 -4
-12 -59 -17 -122 -5 -63 -12 -124 -15 -136 -10 -43 22 -24 90 51 67 74 179
216 196 248 12 22 0 27 -31 12z"/>
<path d="M3071 3909 c-18 -7 -21 -13 -13 -21 14 -14 85 -1 79 15 -5 16 -36 19
-66 6z"/>
<path d="M3055 3690 c-21 -23 -13 -70 11 -70 8 0 40 20 71 45 l55 45 -60 0
c-46 0 -63 -4 -77 -20z"/>
<path d="M2695 3578 c-74 -46 -145 -109 -162 -143 -9 -16 -34 -52 -56 -78 -22
-26 -37 -51 -33 -54 3 -4 39 8 79 25 39 18 82 32 93 32 12 0 44 16 70 35 27
19 59 39 72 45 13 6 22 18 22 31 0 22 0 22 21 3 17 -16 22 -16 29 -4 12 19 12
111 0 130 -10 16 -12 15 -28 -15 -11 -20 -12 -20 -18 3 -9 30 -29 28 -89 -10z"/>
<path d="M4372 3415 c-28 -21 -65 -92 -97 -192 -14 -42 -39 -99 -56 -125 -29
-45 -31 -53 -25 -109 9 -75 42 -184 61 -201 8 -7 21 -19 30 -26 8 -7 15 -27
15 -45 0 -46 10 -77 25 -77 18 0 82 76 102 122 9 21 20 38 25 38 4 0 17 19 29
43 12 23 29 49 39 57 47 38 194 492 152 466 -7 -4 -12 -16 -12 -26 0 -10 -5
-22 -11 -25 -7 -5 -9 12 -7 52 l3 58 -125 3 c-101 2 -129 -1 -148 -13z"/>
<path d="M2800 3404 c0 -8 5 -12 10 -9 6 3 10 10 10 16 0 5 -4 9 -10 9 -5 0
-10 -7 -10 -16z"/>
<path d="M2681 3355 c-70 -38 -93 -55 -73 -55 15 0 119 52 147 74 37 29 -7 17
-74 -19z"/>
<path d="M2491 3265 c-30 -14 -62 -23 -71 -20 -22 7 -36 -23 -14 -32 17 -6
144 53 144 68 0 12 3 13 -59 -16z"/>
<path d="M2317 3143 c-10 -9 -9 -23 2 -23 5 0 11 7 15 15 5 15 -5 20 -17 8z"/>
<path d="M2770 3030 c-7 -4 -10 -15 -7 -24 5 -14 11 -15 27 -6 11 6 20 15 20
19 0 13 -25 20 -40 11z"/>
<path d="M2686 2982 c-25 -29 -120 -68 -231 -97 -111 -29 -115 -31 -115 -51 0
-18 24 -18 53 0 12 8 58 24 103 36 86 23 249 98 249 115 0 18 -41 16 -59 -3z"/>
<path d="M2673 2705 c-39 -17 -76 -52 -68 -65 11 -18 49 -10 90 18 69 48 54
80 -22 47z"/>
<path d="M2559 2120 c-31 -25 -12 -26 21 0 14 11 20 20 14 20 -7 0 -22 -9 -35
-20z"/>
</g>
</svg>
