<?xml version="1.0" encoding="UTF-8"?>
<svg width="256px" height="256px" viewBox="0 0 256 256" version="1.1" xmlns="http://www.w3.org/2000/svg" xmlns:xlink="http://www.w3.org/1999/xlink">
    <title>clubhouse</title>
    <g id="clubhouse" stroke="none" stroke-width="1" fill="none" fill-rule="evenodd">
        <path d="M131.774587,231.52832 C154.253102,231.52832 172.686359,224.938992 187.074358,211.760336 C201.462357,198.58168 210.405657,181.475609 213.904259,160.442125 L213.904259,160.442125 L173.889003,160.442125 C171.177587,170.391574 167.766451,177.853661 163.655594,182.828385 C156.221065,192.079627 145.419133,196.705248 131.249797,196.705248 C117.43032,196.705248 106.037999,191.315963 97.0728325,180.537394 C88.107666,169.758824 83.6250827,153.547331 83.6250827,131.902915 C83.6250827,110.2585 87.8671371,93.5233516 96.3512459,81.6974713 C104.835355,69.871591 116.424472,63.9586508 131.118599,63.9586508 C145.550331,63.9586508 156.439728,68.1478926 163.786791,76.526376 C167.897648,81.239273 171.265052,88.2213426 173.889003,97.4725847 L173.889003,97.4725847 L214.297852,97.4725847 C213.685596,85.4285147 209.224879,73.4280827 200.915701,61.4712886 C185.871714,40.1759764 162.081223,29.5283203 129.544228,29.5283203 C105.228947,29.5283203 85.1994534,37.4704244 69.4557463,53.3546327 C51.3504831,71.5952894 42.2978516,97.5598606 42.2978516,131.248346 C42.2978516,162.405832 50.2571701,186.930351 66.1758073,204.821904 C82.0944445,222.626182 103.960704,231.52832 131.774587,231.52832 Z" id="C" fill="#000000" fill-rule="nonzero"></path>
    </g>
</svg>