<?xml version="1.0" standalone="no"?><!DOCTYPE svg PUBLIC "-//W3C//DTD SVG 1.1//EN" "http://www.w3.org/Graphics/SVG/1.1/DTD/svg11.dtd"><svg class="icon" width="200px" height="177.78px" viewBox="0 0 1152 1024" version="1.1" xmlns="http://www.w3.org/2000/svg"><path d="M815.564956 589.418673c-6.599716-0.799966-13.399424-1.599931-19.99914-2.599888 6.799708 0.799966 13.399424 1.799923 19.99914 2.599888zM575.975251 454.224483c-52.197757-101.395643-194.191656-290.387522-326.185984-383.583518C123.194706-18.755194 74.996777-3.355856 43.198144 11.043525 6.599716 27.642812 0 83.840397 0 116.83898S18.199218 388.027327 29.998711 427.825617c38.998324 131.394354 178.192343 175.792446 306.386835 161.393065 6.599716-0.999957 13.199433-1.799923 19.999141-2.79988-6.599716 0.999957-13.199433 1.999914-19.999141 2.79988-187.791931 27.998797-354.584764 96.395858-135.794165 339.7854C441.181043 1178.193375 530.177219 875.606376 575.975251 722.212967c45.798032 153.393409 98.395772 444.98088 371.184051 206.791115 204.7912-206.791114 56.197585-311.986594-131.594346-339.7854-6.599716-0.799966-13.399424-1.599931-19.99914-2.599888 6.799708 0.799966 13.399424 1.799923 19.99914 2.599888 128.194492 14.19939 267.188519-30.198702 306.386835-161.393065C1133.751284 388.027327 1151.950502 150.037553 1151.950502 116.83898s-6.599716-89.396159-43.198144-105.795455c-31.598642-14.19939-79.996563-29.79872-206.391131 59.59744C770.166907 163.83696 628.173008 352.828839 575.975251 454.224483z" /></svg>