<?xml version="1.0" encoding="UTF-8"?>
<svg width="256px" height="256px" viewBox="0 0 256 256" version="1.1" xmlns="http://www.w3.org/2000/svg" xmlns:xlink="http://www.w3.org/1999/xlink">
    <title>google-scholar</title>
    <g id="google-scholar" stroke="none" stroke-width="1" fill="none" fill-rule="evenodd">
        <g transform="translate(12.000000, 10.500000)" fill="#000000" fill-rule="nonzero" id="Shape">
            <path d="M128.334525,148.165634 C127.156933,148.013484 125.345252,147.952624 122.899484,147.952624 C118.974176,147.952624 115.109257,148.226494 111.274533,148.743805 C107.470004,149.261115 103.484307,150.204446 99.3778308,151.543367 C95.2713548,152.882289 91.6781883,154.6168 88.5983313,156.686042 C85.5184744,158.785714 82.9821216,161.554847 80.9892729,165.02387 C78.9964243,168.492894 78,172.448797 78,176.830722 C78,180.999636 78.8756456,184.833819 80.5967422,188.241983 C82.3480334,191.680576 84.6126341,194.510569 87.3905443,196.701531 C90.1684545,198.892493 93.3992849,200.779155 97.0528407,202.300656 C100.706397,203.822157 104.420342,204.917638 108.164482,205.556669 C111.908621,206.1957 115.652761,206.5 119.45729,206.5 C123.744934,206.5 127.881605,206.01312 131.837108,205.039359 C135.79261,204.065598 139.476361,202.604956 142.82797,200.657434 C146.209774,198.709913 148.8971,196.00164 150.950338,192.471757 C152.973381,188.972303 154,184.894679 154,180.269315 C154,178.413083 153.728248,176.587281 153.214938,174.79191 C152.701629,172.996538 152.158125,171.444606 151.614621,170.075255 C151.071116,168.736334 150.044497,167.184402 148.625348,165.419461 C147.176003,163.654519 146.088995,162.346028 145.334128,161.493987 C144.579261,160.641946 143.160111,159.333455 141.046484,157.629373 C138.932857,155.925292 137.574096,154.82981 137.000397,154.37336 C136.396504,153.91691 134.856575,152.790999 132.380612,151.026057 C129.904648,149.261115 128.545888,148.287354 128.334525,148.165634 L128.334525,148.165634 Z M133.769567,55.6887755 C131.474772,51.032981 128.36472,47.1683673 124.439412,44.0949344 C120.514104,41.0215015 116.166071,39.5 111.425507,39.5 C108.315455,39.5 105.265793,40.2303207 102.246325,41.6909621 C99.257052,43.1516035 96.7810886,45.0991254 94.8486293,47.5639577 C91.4366309,51.976312 89.745729,57.9405977 89.745729,65.4872449 C89.745729,68.9258382 90.1080652,72.5470117 90.8629321,76.4116254 C91.617799,80.245809 92.7651967,84.1104227 94.3655145,87.9446064 C95.9658323,91.7787901 97.8982916,95.2478134 100.132698,98.2908163 C102.397298,101.364249 105.175209,103.859512 108.466428,105.807034 C111.757648,107.754555 115.350814,108.728316 119.185538,108.728316 C121.933254,108.728316 124.801748,108.119716 127.791021,106.872085 C130.780294,105.654883 133.226063,104.011662 135.067938,102.00328 C138.993246,97.8343659 140.9559,91.9005102 140.9559,84.2017128 C140.9559,79.7893586 140.321812,75.1031341 139.053635,70.1430394 C137.845848,65.1829446 136.064362,60.375 133.769567,55.6887755 L133.769567,55.6887755 Z"></path>
            <path d="M207.773398,0.5 L24.2266023,0.5 C10.901971,0.5 0,11.3992108 0,24.7204684 L0,210.279532 C0,223.600789 10.901971,234.5 24.2266023,234.5 L207.773398,234.5 C221.098029,234.5 232,223.600789 232,210.279532 L232,24.7204684 C232,11.3992108 221.098029,0.5 207.773398,0.5 Z M195.114998,22.0259413 C195.114998,22.0259413 189.45203,28.9287747 196.386895,41.5234183 C196.386895,41.5234183 197.658791,45.48952 197.446809,48.0326692 C197.446809,48.0326692 195.175565,59.9612498 197.477092,70.4366024 C197.477092,70.4366024 200.172301,103.346164 197.628508,108.977423 C197.628508,108.977423 196.598877,116.516043 189.27033,115.062815 C189.27033,115.062815 182.577731,115.062815 182.759431,102.286518 C182.759431,102.286518 181.9115,93.688252 182.759431,77.3394359 C182.759431,77.3394359 184.031328,64.3512097 183.607362,56.1768017 C183.607362,56.1768017 182.335465,46.1253073 184.031328,42.5527882 C184.031328,42.5527882 188.210416,36.8912537 187.392769,28.2929874 L187.241352,27.7177513 L157.351782,51.1510545 C157.745464,51.8171174 158.139146,52.4529046 158.502545,53.1189675 C161.318888,58.3263682 162.742201,64.260383 162.742201,70.9512874 C162.742201,76.310066 161.833703,81.1238841 160.016708,85.3927416 C158.199713,89.6615992 155.989035,93.1130159 153.384676,95.7469918 C150.780316,98.3809678 148.206239,100.803015 145.632163,102.982857 C143.058086,105.162699 140.877692,107.463643 139.060697,109.825139 C137.243702,112.21691 136.335204,114.638957 136.335204,117.182106 C136.335204,119.846358 137.516251,122.480334 139.908628,125.023483 C142.301005,127.596908 145.147631,130.109781 148.478789,132.592379 C151.809946,135.074977 155.171388,137.79978 158.563112,140.797063 C161.954836,143.76407 164.831745,147.639345 167.193839,152.392612 C169.586216,157.145879 170.767263,162.413831 170.767263,168.226743 C170.767263,174.978199 168.950268,181.426899 165.316277,187.512291 C160.046991,196.564691 152.264195,203.255596 141.967889,207.524453 C131.671583,211.793311 120.587913,213.942877 108.686594,213.942877 C98.8748205,213.942877 89.7292782,212.398823 81.2196841,209.310713 C72.7100901,206.222603 66.2900405,201.106029 61.9898186,193.991267 C59.3248923,189.601307 57.9621459,184.757213 57.9621459,179.398434 C57.9621459,173.373593 59.6277248,167.802885 62.9285994,162.686311 C66.229474,157.569737 70.6508289,153.30088 76.1320976,149.879739 C85.8227385,143.794346 100.843232,140.070449 121.133011,138.738323 C118.740634,135.680489 116.984206,132.955686 115.833442,130.53364 C114.682679,128.111593 114.107297,125.38679 114.107297,122.328956 C114.107297,119.361949 114.894661,116.213288 116.439107,112.852698 C113.0171,113.155453 110.50359,113.306831 108.868294,113.306831 C97.8754732,113.306831 88.6087978,109.734312 81.0682679,102.558999 C73.5277379,95.3836848 69.7423313,86.3010092 69.7423313,75.3109717 C69.7423313,74.0091215 69.8028978,72.7375469 69.9240308,71.4659723 L27.8605926,71.4659723 L93.666101,14.4873205 L204.109124,14.4873205 L194.600183,21.9351145 L195.114998,22.0259413 Z"></path>
        </g>
    </g>
</svg>