<?xml version="1.0" encoding="UTF-8"?>
<svg width="1290px" height="326px" viewBox="0 0 1290 326" version="1.1" xmlns="http://www.w3.org/2000/svg" xmlns:xlink="http://www.w3.org/1999/xlink">
    <title>POINTAR</title>
    <g id="Page-1" stroke="none" stroke-width="1" fill="none" fill-rule="evenodd" opacity="0.10446167">
        <g id="Desktop-HD" transform="translate(-186.000000, -58.000000)" fill="#FFFFFF" fill-rule="nonzero">
            <path d="M267.219971,377 L267.219971,251.248047 L289.014404,251.248047 C306.758545,251.248047 321.127441,248.805013 332.121094,243.918945 C343.114746,239.032878 350.668864,232.025228 354.783447,222.895996 C358.898031,213.766764 360.955322,199.237142 360.955322,179.307129 L360.955322,179.307129 L360.955322,152.112305 C360.955322,132.568034 359.894531,118.134847 357.772949,108.812744 C355.651367,99.4906413 351.601074,91.5507812 345.62207,84.9931641 C339.643066,78.4355469 330.706706,73.4208984 318.812988,69.9492188 C306.919271,66.4775391 289.914469,64.7416992 267.798584,64.7416992 L267.798584,64.7416992 L186.02124,64.7416992 L186.02124,377 L267.219971,377 Z M273.198975,197.822754 C271.527425,197.822754 269.534424,197.758464 267.219971,197.629883 L267.219971,197.629883 L267.219971,118.166992 C277.76359,118.166992 284.70695,119.774251 288.050049,122.98877 C291.393148,126.203288 293.064697,133.146647 293.064697,143.818848 L293.064697,143.818848 L293.064697,169.470703 C293.064697,181.042969 291.618164,188.661377 288.725098,192.325928 C285.832031,195.990479 280.656657,197.822754 273.198975,197.822754 Z M475.906494,383.557617 C493.522054,383.557617 508.951742,380.664551 522.195557,374.878418 C535.439372,369.092285 545.950846,360.798828 553.72998,349.998047 C561.509115,339.197266 566.138021,327.271403 567.616699,314.220459 C569.095378,301.169515 569.834717,278.957194 569.834717,247.583496 L569.834717,193.177179 C569.818892,161.554808 569.047488,139.380188 567.520264,126.65332 C565.977295,113.795247 561.155518,101.90153 553.054932,90.972168 C544.954346,80.042806 534.25,71.8457845 520.941895,66.3811035 C507.633789,60.9164225 492.621989,58.184082 475.906494,58.184082 C458.290934,58.184082 442.861247,61.0771484 429.617432,66.8632812 C416.373617,72.6494141 405.862142,80.9428711 398.083008,91.7436523 C390.303874,102.544434 385.674967,114.470296 384.196289,127.52124 C382.717611,140.572184 381.978271,162.784505 381.978271,194.158203 L381.978271,248.56452 C381.994096,280.186891 382.7655,302.361511 384.292725,315.088379 C385.835693,327.946452 390.657471,339.840169 398.758057,350.769531 C406.858643,361.698893 417.562988,369.895915 430.871094,375.360596 C444.179199,380.825277 459.190999,383.557617 475.906494,383.557617 Z M475.713623,330.710938 C470.313232,330.710938 466.873698,328.589355 465.39502,324.346191 C463.916341,320.103027 463.177002,308.916504 463.177002,290.786621 L463.177635,144.319158 C463.208037,128.639596 464.332907,119.182868 466.552246,115.948975 C468.802409,112.670166 472.049072,111.030762 476.292236,111.030762 C481.306885,111.030762 484.617839,113.055908 486.225098,117.106201 C487.832357,121.156494 488.635986,130.446452 488.635986,144.976074 L488.635586,289.194466 C488.615551,307.164269 487.8442,318.560059 486.321533,323.381836 C484.778564,328.267904 481.242594,330.710938 475.713623,330.710938 Z M681.314209,377 L681.314209,64.7416992 L600.115479,64.7416992 L600.115479,377 L681.314209,377 Z M781.800049,377 L781.800049,235.046875 L824.038818,377 L895.208252,377 L895.208252,64.7416992 L827.317627,64.7416992 L827.317627,205.344727 L781.800049,64.7416992 L713.909424,64.7416992 L713.909424,377 L781.800049,377 Z M1043.14038,377 L1043.14038,127.231934 L1091.35815,127.231934 L1091.35815,64.7416992 L913.916748,64.7416992 L913.916748,127.231934 L961.94165,127.231934 L961.94165,377 L1043.14038,377 Z M1159.63452,377 L1164.4563,320.874512 L1193.57983,320.874512 L1197.63013,377 L1280.75757,377 L1234.27563,64.7416992 L1116.81714,64.7416992 L1075.54272,377 L1159.63452,377 Z M1191.26538,265.520508 L1163.49194,265.520508 C1165.54924,237.875651 1170.69246,194.222493 1178.92163,134.561035 C1183.03621,186.50765 1187.1508,230.160807 1191.26538,265.520508 L1191.26538,265.520508 Z M1375.84302,377 L1375.84302,236.204102 C1387.02954,236.204102 1393.94076,238.197103 1396.57666,242.183105 C1399.21257,246.169108 1400.53052,256.519857 1400.53052,273.235352 L1400.53052,273.235352 L1400.53052,377 L1475.94312,377 L1475.94312,294.644043 C1475.94312,269.44222 1475.26807,254.044678 1473.91797,248.451416 C1472.56787,242.858154 1469.12834,236.718424 1463.59937,230.032227 C1458.07039,223.346029 1447.26961,218.009928 1431.19702,214.023926 C1448.94116,212.352376 1460.83488,207.337728 1466.87817,198.97998 C1472.92147,190.622233 1475.94312,174.29248 1475.94312,149.990723 C1475.94312,123.374512 1471.66781,103.990967 1463.11719,91.8400879 C1454.56657,79.689209 1443.50863,72.1350911 1429.94336,69.1777344 C1416.37809,66.2203776 1390.43693,64.7416992 1352.11987,64.7416992 L1352.11987,64.7416992 L1294.64429,64.7416992 L1294.64429,377 L1375.84302,377 Z M1375.84302,187.600586 L1375.84302,118.166992 C1385.22941,118.166992 1391.69059,119.709961 1395.22656,122.795898 C1398.76253,125.881836 1400.53052,132.375163 1400.53052,142.275879 L1400.53052,142.275879 L1400.53052,159.441406 C1400.53052,173.199544 1398.69824,181.332275 1395.03369,183.8396 C1391.36914,186.346924 1384.97225,187.600586 1375.84302,187.600586 L1375.84302,187.600586 Z" id="POINTAR"></path>
        </g>
    </g>
</svg>